<svg width="1888" height="216" viewBox="0 0 1888 216" fill="none"
  xmlns="http://www.w3.org/2000/svg">
  <path
    d="M66.8985 1.62968C57.2985 5.72968 51.5985 16.4297 53.8985 26.0297C57.2985 40.3297 71.4985 47.2297 84.2985 41.0297C97.8985 34.4297 100.398 14.4297 88.6985 5.72968C80.7985 -0.170316 73.9985 -1.47032 66.8985 1.62968Z"
    fill="black" />
  <path
    d="M134.098 1.92984C128.298 3.42984 123.298 7.52984 120.498 13.1298C113.898 26.5298 121.398 41.3298 136.198 44.0298C149.198 46.5298 161.998 34.6298 160.698 21.1298C159.398 8.02984 146.598 -1.17016 134.098 1.92984Z"
    fill="black" />
  <path
    d="M296.898 110.029V211.029H317.898H338.898V175.029V139.029H351.198C376.298 138.929 401.098 137.229 409.198 135.129C419.498 132.429 430.098 126.729 436.198 120.629C442.098 114.729 447.298 104.429 449.398 94.5293C451.298 85.3293 451.298 62.7293 449.398 53.5293C445.398 34.6293 432.898 20.6293 413.098 13.2293C406.698 10.8293 405.198 10.6293 375.398 9.92929C358.398 9.52929 333.698 9.12929 320.698 9.12929L296.898 9.02929V110.029ZM392.598 46.5293C404.598 50.7293 409.398 58.6293 409.298 74.1293C409.198 88.2293 404.598 95.6293 392.898 100.929C388.798 102.829 386.398 103.029 363.698 103.029H338.898V74.2293C338.898 58.3293 339.198 45.0293 339.598 44.6293C340.098 44.2293 350.998 44.0293 363.898 44.2293C383.498 44.6293 388.298 44.9293 392.598 46.5293Z"
    fill="black" />
  <path
    d="M1256.9 110.529V211.029H1276.9H1296.8L1297.1 163.229C1297.4 115.729 1297.4 115.529 1299.8 109.629C1304.7 97.5293 1313.9 91.0293 1326.3 91.0293C1335.9 91.0293 1340.3 92.6293 1344.8 97.6293C1351.3 105.029 1351.2 104.229 1351.6 160.329L1352 211.029H1372H1391.9L1391.8 166.229C1391.8 141.629 1391.4 114.729 1391 106.529C1390.4 92.6293 1390.1 91.0293 1387.3 85.0293C1379.2 67.8293 1362 58.0293 1339.9 58.0293C1324.6 58.0293 1311.9 63.1293 1302.6 72.9293L1297.2 78.6293L1296.5 69.0293C1296.2 63.8293 1295.9 48.4293 1295.9 34.7293V10.0293H1276.4H1256.9V110.529Z"
    fill="black" />
  <path
    d="M1169.6 21.6299C1169.2 22.0299 1168.9 31.5299 1168.9 42.7299V63.0299H1158.9H1148.9V77.0299V91.0299H1158.7H1168.6L1169.2 117.23C1169.6 131.73 1169.9 154.13 1169.9 167.03C1169.9 180.63 1170.4 192.13 1171 194.43C1172.4 199.63 1178.8 206.33 1185.2 209.13C1190 211.33 1191.9 211.53 1211.2 211.83L1231.9 212.13V197.73V183.23L1222.3 182.83C1207.7 182.23 1208.9 186.53 1208.9 134.43V91.0299H1220.9H1232.9V77.0299V63.0299H1220.9H1208.9L1208.7 42.2299L1208.4 21.5299L1189.3 21.2299C1178.9 21.1299 1170 21.3299 1169.6 21.6299Z"
    fill="black" />
  <path
    d="M99.3987 36.9299C85.2987 43.4299 82.4987 62.4299 94.1987 72.7299C98.6987 76.7299 103.899 78.4299 109.899 77.8299C131.499 75.7299 137.199 47.4299 117.999 37.3299C112.599 34.5299 104.999 34.3299 99.3987 36.9299Z"
    fill="black" />
  <path
    d="M17.5985 54.1296C8.69849 56.2296 2.69849 61.8296 0.998489 70.0296C-0.601511 77.3296 -0.401511 79.0296 2.49849 84.8296C11.9985 103.93 40.8985 98.6296 42.6985 77.4296C43.8985 62.7296 31.2985 51.0296 17.5985 54.1296Z"
    fill="black" />
  <path
    d="M183.798 55.9294C165.798 65.7294 169.898 92.8294 189.998 96.4294C199.398 98.1294 210.098 92.2294 213.398 83.5294C215.898 77.0294 215.098 68.3294 211.598 63.6294C206.298 56.7294 202.398 54.6294 194.498 54.3294C188.998 54.0294 186.598 54.4294 183.798 55.9294Z"
    fill="black" />
  <path
    d="M637.298 58.5293C613.998 62.7293 598.598 74.5293 587.898 96.3293C581.498 109.329 579.898 117.529 579.898 136.429C579.898 156.429 581.298 163.129 587.998 177.029C592.498 186.129 594.298 188.629 601.798 196.029C616.998 211.129 627.898 215.029 654.898 215.029C668.198 215.029 673.098 214.629 679.298 213.029C699.198 207.929 714.098 195.029 723.298 174.829C729.198 162.029 730.398 155.629 730.398 136.529C730.398 117.429 729.198 111.029 723.298 98.2293C710.398 70.0293 688.298 56.8293 654.398 57.1293C648.898 57.1293 641.198 57.8293 637.298 58.5293ZM669.198 93.3293C683.698 100.029 690.698 115.829 689.698 139.829C689.098 153.529 686.798 161.729 681.398 169.629C676.898 176.029 671.698 179.629 663.598 181.629C648.598 185.529 634.098 179.629 626.298 166.429C618.298 152.829 617.798 122.729 625.398 107.929C627.898 103.229 634.798 96.1293 639.098 93.9293C647.998 89.4293 660.198 89.1293 669.198 93.3293Z"
    fill="black" />
  <path
    d="M549.899 59.1293C538.299 61.1293 528.399 68.2293 520.099 80.8293L516.399 86.3293L516.099 73.8293L515.799 61.2293L497.599 61.7293C487.599 62.0293 479.299 62.3293 479.199 62.4293C479.099 62.5293 478.899 95.8294 478.799 136.529L478.599 210.529L480.999 210.929C482.299 211.129 491.199 210.929 500.699 210.529L517.899 209.829V173.629C517.899 122.729 518.899 116.029 527.399 107.429C533.999 100.729 539.299 98.9293 553.699 98.3293L564.899 97.7293V85.5293C564.899 78.8293 565.199 69.9293 565.499 65.7293L566.199 58.0293L560.799 58.1293C557.799 58.2293 552.899 58.6293 549.899 59.1293Z"
    fill="black" />
  <path
    d="M830.899 59.1293C819.399 60.7293 814.099 63.6293 805.199 72.5293L796.899 80.8293V76.0293C796.899 73.4293 796.599 69.2293 796.299 66.6293L795.599 62.0293H777.299H758.899V92.2293C758.899 108.929 758.599 142.429 758.199 166.729L757.599 211.029H764.999C769.099 211.029 778.099 210.729 785.099 210.329L797.799 209.729L798.199 160.129C798.399 124.129 798.899 109.529 799.799 106.729C802.799 97.5293 811.199 92.5293 823.499 92.6293C832.999 92.7293 838.599 95.8293 842.099 102.729L844.399 107.529L844.699 159.229L844.999 211.029H864.899H884.799L885.199 161.329C885.599 105.329 885.399 106.529 892.899 98.8293C898.199 93.4293 903.399 91.6293 912.499 92.2293C920.899 92.7293 925.799 96.0293 929.299 103.429L931.899 108.929V159.929V211.029H951.899H971.899V156.229C971.899 126.129 971.499 98.9293 970.899 95.7293C968.399 80.2293 957.999 67.2293 943.599 61.8293C932.799 57.7293 915.799 57.8293 904.399 62.1293C897.699 64.6293 888.599 71.4293 883.899 77.5293C881.999 80.0293 880.199 82.0293 879.899 82.0293C879.599 82.0293 878.199 79.8293 876.699 77.1293C871.199 67.3293 860.999 60.9293 848.099 59.0293C840.499 57.9293 838.599 57.9293 830.899 59.1293Z"
    fill="black" />
  <path
    d="M1047.1 60.0296C1021.3 66.9296 1004.1 86.3296 998.299 115.03C996.199 125.43 996.799 155.93 999.299 165.73C1005.3 189.33 1023.1 206.53 1048.4 213.13C1058.8 215.83 1077.1 216.03 1087.9 213.53C1100.9 210.63 1109.3 205.93 1119 196.13C1128 187.03 1134.9 175.63 1134.9 169.93V167.03H1115.1H1095.4L1093.4 170.63C1087.3 182.03 1070.4 186.73 1055.8 181.13C1045.3 177.13 1037.9 166.23 1036.3 152.53L1035.6 147.03H1086.9H1138.2L1137.6 133.63C1137.2 126.33 1136.3 117.13 1135.5 113.33C1130.8 91.0296 1118.7 73.9296 1101.7 65.5296C1090.7 60.1296 1085.1 58.9296 1068.9 58.4296C1056.7 58.0296 1053.3 58.3296 1047.1 60.0296ZM1076 91.6296C1079.5 92.6296 1083.5 94.6296 1085.8 96.7296C1090.3 100.53 1095.4 110.23 1096.4 116.73L1097.1 121.03H1066.9H1036.7L1037.4 117.23C1038.2 112.73 1042.1 103.83 1044.9 100.33C1052 91.3296 1063.4 88.1296 1076 91.6296Z"
    fill="black" />
  <path
    d="M1467.1 60.0296C1441.3 66.9296 1424.1 86.3296 1418.3 115.03C1416.2 125.43 1416.8 155.93 1419.3 165.73C1425.3 189.33 1443.1 206.53 1468.4 213.13C1478.8 215.83 1497.1 216.03 1507.9 213.53C1520.9 210.63 1529.3 205.93 1539 196.13C1548 187.03 1554.9 175.63 1554.9 169.93V167.03H1535.1H1515.4L1513.4 170.63C1507.3 182.03 1490.4 186.73 1475.8 181.13C1465.3 177.13 1457.9 166.23 1456.3 152.53L1455.6 147.03H1506.9H1558.2L1557.6 133.63C1557.2 126.33 1556.3 117.13 1555.5 113.33C1550.8 91.0296 1538.7 73.9296 1521.7 65.5296C1510.7 60.1296 1505.1 58.9296 1488.9 58.4296C1476.7 58.0296 1473.3 58.3296 1467.1 60.0296ZM1499 92.7296C1501.5 93.8296 1505.1 96.1296 1507.1 97.8296C1511 101.33 1515.3 110.13 1516.4 116.73L1517.1 121.03H1486.9H1456.7L1457.4 117.23C1458.2 112.73 1462.1 103.83 1464.9 100.33C1467.8 96.6296 1473.8 92.4296 1477.9 91.1296C1483 89.6296 1493.7 90.4296 1499 92.7296Z"
    fill="black" />
  <path
    d="M1583.3 115.629C1583.7 145.829 1584.5 173.229 1585 176.529C1586.6 186.129 1591.9 195.929 1598.8 202.329C1609 211.729 1622.3 215.029 1641.7 213.129C1655.4 211.729 1662.6 208.429 1672.2 199.029L1678.9 192.429V201.729V211.029H1698.4H1717.9V136.029V61.0292H1697.9H1677.9V104.229C1677.9 156.029 1677.1 162.629 1670.2 171.729C1664.6 179.029 1652.4 183.029 1641.9 181.029C1634.7 179.629 1631 177.329 1627.3 171.829C1623.2 165.729 1622.9 161.929 1622.9 106.829V62.0292H1610.6C1603.8 62.0292 1594.7 61.7292 1590.4 61.3292L1582.6 60.7292L1583.3 115.629Z"
    fill="black" />
  <path
    d="M1745.9 66.7293C1747.5 69.4293 1758.2 85.8293 1769.8 103.429L1790.8 135.329L1765.9 172.529C1752.1 193.029 1740.9 210.029 1740.9 210.429C1740.9 210.729 1751.5 211.029 1764.4 211.029H1787.8L1793.5 201.329C1796.6 195.929 1802.4 185.929 1806.4 179.129L1813.6 166.829L1825.8 187.629C1832.4 199.129 1838 208.829 1838.1 209.229C1838.3 209.529 1849.6 210.229 1863.3 210.629C1877.9 211.029 1888 210.929 1887.8 210.429C1887.6 209.929 1876.4 193.129 1863 173.029C1849.6 152.929 1838.4 135.929 1838.2 135.329C1837.9 134.629 1848.6 117.829 1861.8 98.0293L1886 62.0293H1862.6H1839.2L1827.4 83.0293C1820.9 94.5293 1815.3 103.729 1814.9 103.529C1814.4 103.229 1812.6 100.429 1810.9 97.2293C1809.1 94.1293 1803.8 84.9293 1799.1 76.7293L1790.5 62.0293H1766.7H1742.9L1745.9 66.7293Z"
    fill="black" />
  <path
    d="M52.2987 85.6293C51.7987 85.7293 49.6987 86.1293 47.5987 86.5293C45.4987 86.8293 42.2987 88.5293 40.2987 90.2293C29.2987 99.9293 30.0987 116.329 41.9987 124.629C45.7987 127.229 46.9987 127.529 53.9987 127.529C60.9987 127.529 62.0987 127.229 65.9987 124.529C73.5987 119.229 76.5987 111.329 74.7987 102.229C73.6987 96.7293 69.0987 90.3293 64.4987 87.8293C62.4987 86.6293 54.0987 85.2293 52.2987 85.6293Z"
    fill="black" />
  <path
    d="M151.399 87.9298C137.299 94.4298 134.499 113.43 146.199 123.73C156.899 133.03 173.499 129.53 179.499 116.63C183.399 108.33 182.299 99.8298 176.599 93.3298C170.499 86.3298 159.799 84.0298 151.399 87.9298Z"
    fill="black" />
  <path
    d="M189.398 118.53C188.898 118.73 187.198 119.13 185.598 119.43C182.198 120.23 175.298 126.33 173.198 130.43C171.198 134.23 170.998 144.53 172.798 148.03C177.398 156.83 183.798 161.13 192.298 161.23C198.598 161.33 203.398 159.33 207.798 154.93C212.198 150.53 213.898 146.33 213.898 139.53C213.898 130.93 209.798 124.53 201.398 120.23C199.198 119.13 190.998 117.93 189.398 118.53Z"
    fill="black" />
  <path
    d="M15.6983 119.929C4.3983 123.529 -1.8017 134.529 0.898297 145.829C3.1983 155.529 11.4983 161.929 21.6983 162.029C28.4983 162.029 32.4983 160.329 36.9983 155.329C41.5983 150.229 43.2983 145.329 42.6983 138.429C41.8983 128.429 33.6983 120.429 23.1983 119.529C20.5983 119.329 17.1983 119.529 15.6983 119.929Z"
    fill="black" />
  <path
    d="M98.1986 142.529C82.4986 150.329 82.3986 172.629 97.9986 180.429C111.499 187.129 126.599 179.529 129.299 164.829C131.499 152.629 120.599 140.029 107.899 140.029C104.999 140.029 101.399 140.929 98.1986 142.529Z"
    fill="black" />
  <path
    d="M70.3983 172.93C58.1983 176.03 51.0983 187.33 53.8983 199.13C57.1983 213.03 73.5983 219.83 85.5983 212.43C96.0983 205.93 99.3983 193.33 93.2983 183.33C88.3983 175.43 78.3983 170.93 70.3983 172.93Z"
    fill="black" />
  <path
    d="M134.798 173.429C128.198 175.229 124.398 178.329 121.298 184.529C117.898 191.529 118.198 198.529 122.198 205.329C130.198 218.929 150.598 218.929 158.498 205.429C163.698 196.529 162.698 187.029 155.698 179.429C150.198 173.429 142.698 171.229 134.798 173.429Z"
    fill="black" />
</svg>