<svg height="180px" viewBox="0 0 217 217" version="1.1"
    xmlns="http://www.w3.org/2000/svg"
    xmlns:xlink="http://www.w3.org/1999/xlink">
    <g id="Page-1" stroke="none" stroke-width="1" fill="none"
        fill-rule="evenodd">
        <g id="Group-4" transform="translate(0.686292, 0.979185)" fill="#000000"
            stroke="#000000" stroke-width="15">
            <circle id="Oval"
                transform="translate(108.310219, 161.599156) rotate(90.000000) translate(-108.310219, -161.599156) "
                cx="108.310219" cy="161.599156" r="14.435824"></circle>
            <circle id="Oval"
                transform="translate(160.721723, 107.432786) rotate(90.000000) translate(-160.721723, -107.432786) "
                cx="160.721723" cy="107.432786" r="14.435824"></circle>
            <circle id="Oval"
                transform="translate(193.186743, 139.897806) rotate(90.000000) translate(-193.186743, -139.897806) "
                cx="193.186743" cy="139.897806" r="14.435824"></circle>
            <circle id="Oval"
                transform="translate(140.775239, 194.064176) rotate(90.000000) translate(-140.775239, -194.064176) "
                cx="140.775239" cy="194.064176" r="14.435824"></circle>
            <circle id="Oval"
                transform="translate(75.224761, 21.935824) rotate(90.000000) translate(-75.224761, -21.935824) "
                cx="75.224761" cy="21.935824" r="14.435824"></circle>
            <circle id="Oval"
                transform="translate(21.935824, 75.224761) rotate(90.000000) translate(-21.935824, -75.224761) "
                cx="21.935824" cy="75.224761" r="14.435824"></circle>
            <circle id="Oval"
                transform="translate(54.400844, 106.812348) rotate(90.000000) translate(-54.400844, -106.812348) "
                cx="54.4008436" cy="106.812348" r="14.435824"></circle>
            <circle id="Oval"
                transform="translate(108.673664, 56.519154) rotate(-45.000000) translate(-108.673664, -56.519154) "
                cx="108.673664" cy="56.5191542" r="14.435824"></circle>
            <circle id="Oval" cx="139.897806" cy="22.813257" r="14.435824">
            </circle>
            <circle id="Oval" cx="194.064176" cy="75.224761" r="14.435824">
            </circle>
            <circle id="Oval" cx="21.935824" cy="140.775239" r="14.435824">
            </circle>
            <circle id="Oval" cx="75.224761" cy="194.064176" r="14.435824">
            </circle>
        </g>
    </g>
</svg>