<svg xmlns="http://www.w3.org/2000/svg" width="720" height="960" viewBox="0 0 720 960">
  <rect width="100%" height="100%" fill="#ffffff"/>
  <g font-family="Arial, Helvetica, sans-serif" fill="#222">
    <rect x="40" y="40" width="640" height="220" rx="18" fill="#e9f0ff" stroke="#cbdcf5"/>
    <text x="60" y="80" font-size="20" font-weight="700">Data Sources / Ingestion / AI Integration</text>
    <g transform="translate(60,110)">
      <rect x="0" y="20" width="120" height="80" rx="10" fill="#fff" stroke="#cfcfcf"/>
      <text x="10" y="60" font-size="14">PostgreSQL</text>
      <rect x="140" y="20" width="120" height="80" rx="10" fill="#fff" stroke="#cfcfcf"/>
      <text x="150" y="60" font-size="14">MongoDB</text>
      <rect x="280" y="20" width="120" height="80" rx="10" fill="#fff" stroke="#cfcfcf"/>
      <text x="290" y="60" font-size="14">MariaDB</text>
    </g>

    <rect x="60" y="300" width="600" height="140" rx="14" fill="#fff7e6" stroke="#f0dab0"/>
    <text x="90" y="340" font-size="22" font-weight="700">Ontology-based Processing Engine</text>
    <text x="120" y="370" font-size="16">prometheux</text>

    <rect x="40" y="480" width="640" height="220" rx="18" fill="#f7f7ff" stroke="#e1e1ff"/>
    <text x="60" y="520" font-size="20" font-weight="700">Compute Warehouses & Clusters</text>
    <g transform="translate(60,550)">
      <rect x="0" y="20" width="120" height="80" rx="10" fill="#fff" stroke="#cfcfcf"/>
      <text x="10" y="60" font-size="14">EKS / GKE / AKS</text>
      <rect x="140" y="20" width="120" height="80" rx="10" fill="#fff" stroke="#cfcfcf"/>
      <text x="150" y="60" font-size="14">Spark</text>
      <rect x="280" y="20" width="160" height="80" rx="10" fill="#fff" stroke="#cfcfcf"/>
      <text x="290" y="60" font-size="14">Snowpark / Snowflake</text>
    </g>

    <g stroke="#333" stroke-width="2" fill="none">
      <path d="M360 260 L360 300"/>
      <path d="M200 440 L200 480"/>
      <path d="M520 440 L520 480"/>
    </g>

    <text x="60" y="760" font-size="12" fill="#777">(Placeholder SVG architecture diagram — replace with the provided PNG for full detail)</text>
  </g>
</svg>
